<mxfile host="Electron" modified="2023-06-10T19:09:19.133Z" agent="Mozilla/5.0 (Windows NT 10.0; Win64; x64) AppleWebKit/537.36 (KHTML, like Gecko) draw.io/21.2.8 Chrome/112.0.5615.165 Electron/24.2.0 Safari/537.36" etag="eYHPfbL3MbPyp9DUfYbz" version="21.2.8" type="device">
  <diagram name="Page-1" id="yGozCTqb1JnejrZYd856">
    <mxGraphModel dx="567" dy="331" grid="1" gridSize="10" guides="1" tooltips="1" connect="1" arrows="1" fold="1" page="1" pageScale="1" pageWidth="690" pageHeight="980" math="0" shadow="0">
      <root>
        <mxCell id="0" />
        <mxCell id="1" parent="0" />
        <mxCell id="wzJ6EK9ndXYcS4Nqo2FB-5" style="edgeStyle=orthogonalEdgeStyle;rounded=0;orthogonalLoop=1;jettySize=auto;html=1;entryX=0.5;entryY=0;entryDx=0;entryDy=0;" parent="1" source="rKHckfa7pBqVRsVSqDrz-1" target="wzJ6EK9ndXYcS4Nqo2FB-1" edge="1">
          <mxGeometry relative="1" as="geometry" />
        </mxCell>
        <mxCell id="rKHckfa7pBqVRsVSqDrz-1" value="SIMMUN&lt;br&gt;&lt;span style=&quot;font-weight: normal;&quot;&gt;enrolled participants: n = 215&lt;/span&gt;" style="rounded=1;whiteSpace=wrap;html=1;fontStyle=1;fontSize=8;fillColor=#dae8fc;strokeColor=#6c8ebf;" parent="1" vertex="1">
          <mxGeometry x="156.5" y="10" width="120" height="40" as="geometry" />
        </mxCell>
        <mxCell id="rKHckfa7pBqVRsVSqDrz-7" value="excluded due to missing values of study variables&lt;br&gt;n = 50" style="rounded=1;whiteSpace=wrap;html=1;fontSize=8;fillColor=#f8cecc;strokeColor=#b85450;" parent="1" vertex="1">
          <mxGeometry y="310" width="100" height="40" as="geometry" />
        </mxCell>
        <mxCell id="1Nu3ONZQS2WqPKR9Fhh7-5" style="edgeStyle=orthogonalEdgeStyle;rounded=0;orthogonalLoop=1;jettySize=auto;html=1;" parent="1" source="1Nu3ONZQS2WqPKR9Fhh7-2" target="1Nu3ONZQS2WqPKR9Fhh7-4" edge="1">
          <mxGeometry relative="1" as="geometry">
            <Array as="points">
              <mxPoint x="216" y="340" />
              <mxPoint x="216" y="340" />
            </Array>
          </mxGeometry>
        </mxCell>
        <mxCell id="1Nu3ONZQS2WqPKR9Fhh7-6" style="edgeStyle=orthogonalEdgeStyle;rounded=0;orthogonalLoop=1;jettySize=auto;html=1;exitX=0.5;exitY=1;exitDx=0;exitDy=0;entryX=1;entryY=0.5;entryDx=0;entryDy=0;" parent="1" source="1Nu3ONZQS2WqPKR9Fhh7-2" target="rKHckfa7pBqVRsVSqDrz-7" edge="1">
          <mxGeometry relative="1" as="geometry">
            <Array as="points">
              <mxPoint x="217" y="330" />
            </Array>
          </mxGeometry>
        </mxCell>
        <mxCell id="1Nu3ONZQS2WqPKR9Fhh7-2" value="&lt;font style=&quot;font-size: 8px;&quot;&gt;&lt;b style=&quot;border-color: var(--border-color);&quot;&gt;Outcomes:&lt;/b&gt;&lt;br style=&quot;border-color: var(--border-color);&quot;&gt;serum concentrations of TRP, KYN, PHE, TYR, ratios of KYN/TRP and PHE/TYR&lt;br style=&quot;border-color: var(--border-color);&quot;&gt;&lt;br style=&quot;border-color: var(--border-color);&quot;&gt;&lt;b style=&quot;border-color: var(--border-color);&quot;&gt;Explanatory variables:&lt;br style=&quot;border-color: var(--border-color);&quot;&gt;&lt;/b&gt;demographic and clinical variables (age, sex, body mass index, smoking, alcohol, physical and mental disorders)&lt;br style=&quot;border-color: var(--border-color);&quot;&gt;markers of inflammation (neopterin, NLR)&lt;br style=&quot;border-color: var(--border-color);&quot;&gt;SARS-CoV-2 infection and anti-SARS-CoV-2 Ab titer&lt;br style=&quot;border-color: var(--border-color);&quot;&gt;psychometric variables (stress, depression, anxiety)&lt;/font&gt;" style="rounded=0;whiteSpace=wrap;html=1;" parent="1" vertex="1">
          <mxGeometry x="109" y="150" width="215" height="160" as="geometry" />
        </mxCell>
        <mxCell id="1Nu3ONZQS2WqPKR9Fhh7-11" style="edgeStyle=orthogonalEdgeStyle;rounded=0;orthogonalLoop=1;jettySize=auto;html=1;exitX=0.5;exitY=1;exitDx=0;exitDy=0;entryX=0.5;entryY=0;entryDx=0;entryDy=0;" parent="1" source="1Nu3ONZQS2WqPKR9Fhh7-4" target="1Nu3ONZQS2WqPKR9Fhh7-7" edge="1">
          <mxGeometry relative="1" as="geometry" />
        </mxCell>
        <mxCell id="1Nu3ONZQS2WqPKR9Fhh7-4" value="SIMMUN&lt;br&gt;&lt;span style=&quot;font-weight: normal;&quot;&gt;analyzed participants: n = 165&lt;/span&gt;" style="rounded=1;whiteSpace=wrap;html=1;fontStyle=1;fontSize=8;fillColor=#dae8fc;strokeColor=#6c8ebf;" parent="1" vertex="1">
          <mxGeometry x="156.5" y="350" width="120" height="40" as="geometry" />
        </mxCell>
        <mxCell id="1Nu3ONZQS2WqPKR9Fhh7-12" style="edgeStyle=orthogonalEdgeStyle;rounded=0;orthogonalLoop=1;jettySize=auto;html=1;exitX=0.5;exitY=1;exitDx=0;exitDy=0;entryX=0.5;entryY=0;entryDx=0;entryDy=0;" parent="1" source="1Nu3ONZQS2WqPKR9Fhh7-7" target="1Nu3ONZQS2WqPKR9Fhh7-8" edge="1">
          <mxGeometry relative="1" as="geometry" />
        </mxCell>
        <mxCell id="1Nu3ONZQS2WqPKR9Fhh7-7" value="&lt;font style=&quot;font-size: 8px;&quot;&gt;Identification of demographic, clinical, inflammatory, SARS-CoV-related and mental health factors that influence the levels of TRP, KYN, KYN/TRP, PHE, TYR and PHE/TYR&lt;/font&gt;" style="rounded=0;whiteSpace=wrap;html=1;" parent="1" vertex="1">
          <mxGeometry x="109" y="410" width="215" height="50" as="geometry" />
        </mxCell>
        <mxCell id="1Nu3ONZQS2WqPKR9Fhh7-13" style="edgeStyle=orthogonalEdgeStyle;rounded=0;orthogonalLoop=1;jettySize=auto;html=1;exitX=0.5;exitY=1;exitDx=0;exitDy=0;entryX=0.5;entryY=0;entryDx=0;entryDy=0;" parent="1" source="1Nu3ONZQS2WqPKR9Fhh7-8" target="1Nu3ONZQS2WqPKR9Fhh7-9" edge="1">
          <mxGeometry relative="1" as="geometry" />
        </mxCell>
        <mxCell id="1Nu3ONZQS2WqPKR9Fhh7-8" value="Multi-parameter linear modeling (backward elimitation)" style="rounded=1;whiteSpace=wrap;html=1;fontSize=8;fillColor=#ffe6cc;strokeColor=#d79b00;" parent="1" vertex="1">
          <mxGeometry x="144" y="480" width="145" height="40" as="geometry" />
        </mxCell>
        <mxCell id="1Nu3ONZQS2WqPKR9Fhh7-9" value="Univariable analysis (correlation, statistical hypothesis testing) of explanatory factors idenftified by linear modeling" style="rounded=1;whiteSpace=wrap;html=1;fontSize=8;fillColor=#ffe6cc;strokeColor=#d79b00;" parent="1" vertex="1">
          <mxGeometry x="144" y="540" width="145" height="50" as="geometry" />
        </mxCell>
        <mxCell id="wzJ6EK9ndXYcS4Nqo2FB-3" style="edgeStyle=orthogonalEdgeStyle;rounded=0;orthogonalLoop=1;jettySize=auto;html=1;exitX=0.5;exitY=1;exitDx=0;exitDy=0;entryX=0.5;entryY=0;entryDx=0;entryDy=0;" parent="1" source="1Nu3ONZQS2WqPKR9Fhh7-14" target="wzJ6EK9ndXYcS4Nqo2FB-2" edge="1">
          <mxGeometry relative="1" as="geometry" />
        </mxCell>
        <mxCell id="1Nu3ONZQS2WqPKR9Fhh7-14" value="INCOV&lt;br&gt;&lt;span style=&quot;font-weight: 400;&quot;&gt;enrolled participants: n = 225, samples: n = 645&lt;/span&gt;" style="rounded=1;whiteSpace=wrap;html=1;fontStyle=1;fontSize=8;fillColor=#dae8fc;strokeColor=#6c8ebf;" parent="1" vertex="1">
          <mxGeometry x="514" y="10" width="120" height="40" as="geometry" />
        </mxCell>
        <mxCell id="1Nu3ONZQS2WqPKR9Fhh7-21" style="edgeStyle=orthogonalEdgeStyle;rounded=0;orthogonalLoop=1;jettySize=auto;html=1;exitX=0.5;exitY=1;exitDx=0;exitDy=0;entryX=0.5;entryY=0;entryDx=0;entryDy=0;" parent="1" source="1Nu3ONZQS2WqPKR9Fhh7-15" target="1Nu3ONZQS2WqPKR9Fhh7-19" edge="1">
          <mxGeometry relative="1" as="geometry" />
        </mxCell>
        <mxCell id="1Nu3ONZQS2WqPKR9Fhh7-15" value="&lt;font style=&quot;font-size: 8px;&quot;&gt;Impact of SARS-CoV-2 infection, systemic inflammation, kynurenine and catecholamine pathway metabolite levels on the serum levels of serotonin and DA sulfate&lt;/font&gt;" style="rounded=0;whiteSpace=wrap;html=1;" parent="1" vertex="1">
          <mxGeometry x="466.5" y="410" width="215" height="50" as="geometry" />
        </mxCell>
        <mxCell id="g2LCM1nM8IFRirEf6F6N-3" style="edgeStyle=orthogonalEdgeStyle;rounded=0;orthogonalLoop=1;jettySize=auto;html=1;exitX=0.5;exitY=1;exitDx=0;exitDy=0;entryX=1;entryY=0.5;entryDx=0;entryDy=0;" parent="1" source="1Nu3ONZQS2WqPKR9Fhh7-16" target="g2LCM1nM8IFRirEf6F6N-2" edge="1">
          <mxGeometry relative="1" as="geometry" />
        </mxCell>
        <mxCell id="g2LCM1nM8IFRirEf6F6N-4" style="edgeStyle=orthogonalEdgeStyle;rounded=0;orthogonalLoop=1;jettySize=auto;html=1;exitX=0.5;exitY=1;exitDx=0;exitDy=0;entryX=0.5;entryY=0;entryDx=0;entryDy=0;" parent="1" source="1Nu3ONZQS2WqPKR9Fhh7-16" target="g2LCM1nM8IFRirEf6F6N-1" edge="1">
          <mxGeometry relative="1" as="geometry" />
        </mxCell>
        <mxCell id="1Nu3ONZQS2WqPKR9Fhh7-16" value="&lt;font style=&quot;font-size: 8px;&quot;&gt;&lt;b style=&quot;border-color: var(--border-color);&quot;&gt;Outcomes:&lt;/b&gt;&lt;br style=&quot;border-color: var(--border-color);&quot;&gt;plasma concentrations of serotonin and DA sulfate&lt;br style=&quot;border-color: var(--border-color);&quot;&gt;&lt;br style=&quot;border-color: var(--border-color);&quot;&gt;&lt;span style=&quot;border-color: var(--border-color);&quot;&gt;&lt;b&gt;Explanatory variables:&lt;/b&gt;&lt;br&gt;demographic and clinical variables (age, sex, body mass index)&lt;br style=&quot;border-color: var(--border-color);&quot;&gt;&lt;/span&gt;SARS-CoV-2 infection and infection timepoint&lt;br&gt;plasma cytokine markers of inflammation (IL6, IL10, TNF and IFNG)&lt;br&gt;plasma levels of metabolites of the kynurenine and catecholamine pathways (TRP, KYN, QUIN, PHE, TYR)&lt;br&gt;&lt;/font&gt;" style="rounded=0;whiteSpace=wrap;html=1;" parent="1" vertex="1">
          <mxGeometry x="466.5" y="150" width="215" height="160" as="geometry" />
        </mxCell>
        <mxCell id="1Nu3ONZQS2WqPKR9Fhh7-22" style="edgeStyle=orthogonalEdgeStyle;rounded=0;orthogonalLoop=1;jettySize=auto;html=1;exitX=0.5;exitY=1;exitDx=0;exitDy=0;entryX=0.5;entryY=0;entryDx=0;entryDy=0;" parent="1" source="1Nu3ONZQS2WqPKR9Fhh7-19" target="1Nu3ONZQS2WqPKR9Fhh7-20" edge="1">
          <mxGeometry relative="1" as="geometry" />
        </mxCell>
        <mxCell id="1Nu3ONZQS2WqPKR9Fhh7-19" value="Multi-parameter robust linear modeling" style="rounded=1;whiteSpace=wrap;html=1;fontSize=8;fillColor=#ffe6cc;strokeColor=#d79b00;" parent="1" vertex="1">
          <mxGeometry x="499" y="480" width="145" height="40" as="geometry" />
        </mxCell>
        <mxCell id="1Nu3ONZQS2WqPKR9Fhh7-20" value="Time course robust linear modeling and correlation analysis of metabolites and cytokine markers of inflammation" style="rounded=1;whiteSpace=wrap;html=1;fontSize=8;fillColor=#ffe6cc;strokeColor=#d79b00;" parent="1" vertex="1">
          <mxGeometry x="499" y="540" width="145" height="50" as="geometry" />
        </mxCell>
        <mxCell id="g2LCM1nM8IFRirEf6F6N-5" style="edgeStyle=orthogonalEdgeStyle;rounded=0;orthogonalLoop=1;jettySize=auto;html=1;exitX=0.5;exitY=1;exitDx=0;exitDy=0;entryX=0.5;entryY=0;entryDx=0;entryDy=0;" parent="1" source="g2LCM1nM8IFRirEf6F6N-1" target="1Nu3ONZQS2WqPKR9Fhh7-15" edge="1">
          <mxGeometry relative="1" as="geometry" />
        </mxCell>
        <mxCell id="g2LCM1nM8IFRirEf6F6N-1" value="INCOV&lt;br&gt;&lt;span style=&quot;font-weight: normal;&quot;&gt;analyzed participants: n = 167&amp;nbsp;&lt;br&gt;samples:&amp;nbsp; n =&amp;nbsp; 354&lt;/span&gt;" style="rounded=1;whiteSpace=wrap;html=1;fontStyle=1;fontSize=8;fillColor=#dae8fc;strokeColor=#6c8ebf;" parent="1" vertex="1">
          <mxGeometry x="514" y="350" width="120" height="40" as="geometry" />
        </mxCell>
        <mxCell id="g2LCM1nM8IFRirEf6F6N-2" value="excluded due to missing values of study variables&lt;br&gt;n = 58" style="rounded=1;whiteSpace=wrap;html=1;fontSize=8;fillColor=#f8cecc;strokeColor=#b85450;" parent="1" vertex="1">
          <mxGeometry x="359" y="310" width="100" height="40" as="geometry" />
        </mxCell>
        <mxCell id="wzJ6EK9ndXYcS4Nqo2FB-6" style="edgeStyle=orthogonalEdgeStyle;rounded=0;orthogonalLoop=1;jettySize=auto;html=1;entryX=0.5;entryY=0;entryDx=0;entryDy=0;" parent="1" source="wzJ6EK9ndXYcS4Nqo2FB-1" target="1Nu3ONZQS2WqPKR9Fhh7-2" edge="1">
          <mxGeometry relative="1" as="geometry" />
        </mxCell>
        <mxCell id="wzJ6EK9ndXYcS4Nqo2FB-1" value="&lt;font style=&quot;font-size: 8px;&quot;&gt;Cross-sectional, uninfected and SARS-CoV-2-infected individuals&lt;br&gt;recruited at the University Hospital of Innsbruck, Austria&lt;br&gt;&lt;/font&gt;" style="rounded=0;whiteSpace=wrap;html=1;" parent="1" vertex="1">
          <mxGeometry x="109" y="70" width="215" height="60" as="geometry" />
        </mxCell>
        <mxCell id="wzJ6EK9ndXYcS4Nqo2FB-4" style="edgeStyle=orthogonalEdgeStyle;rounded=0;orthogonalLoop=1;jettySize=auto;html=1;exitX=0.5;exitY=1;exitDx=0;exitDy=0;entryX=0.5;entryY=0;entryDx=0;entryDy=0;" parent="1" source="wzJ6EK9ndXYcS4Nqo2FB-2" target="1Nu3ONZQS2WqPKR9Fhh7-16" edge="1">
          <mxGeometry relative="1" as="geometry" />
        </mxCell>
        <mxCell id="wzJ6EK9ndXYcS4Nqo2FB-2" value="&lt;font style=&quot;font-size: 8px;&quot;&gt;Published longitudinal cohort (Su 2022).&lt;br&gt;Uninfected and SARS-CoV-2 individuals, medtabolites and cytokines determined during acute and sub-acute infection and revcovery&lt;br&gt;&lt;/font&gt;" style="rounded=0;whiteSpace=wrap;html=1;" parent="1" vertex="1">
          <mxGeometry x="466.5" y="70" width="215" height="60" as="geometry" />
        </mxCell>
      </root>
    </mxGraphModel>
  </diagram>
</mxfile>
